- 
http://www.Speed.Cd      fast  and The Hottest Private Tracker on the net

   signup is open now

Please Seed back to make the speed Faster!!!

------------------nfo--------------------------
-








































          
          
              
              
                    
                    
                    
                    

Mysteria.2011.BRRip.XviD.AC3-SiC

Poster:
[img]http://img13.imageshack.us/img13/3778/mv5bmtgyotqwmdm5of5bml5.jpg[/img]

IMDB Link:
http://www.imdb.com/title/tt1701218/

Description:
A once famous and now a washed-up Hollywood screenwriter fighting to finish his latest script with an unrealistic deadline...

MediaInfo:
General
Complete name                    : Mysteria.2011.BRRip.XviD.AC3-SiC.avi
Format                           : AVI
Format/Info                      : Audio Video Interleave
File size                        : 1.37 GiB
Duration                         : 1h 33mn
Overall bit rate                 : 2 082 Kbps

Video
ID                               : 0
Format                           : MPEG-4 Visual
Format profile                   : Advanced Simple@L5
Format settings, BVOP            : 2
Format settings, QPel            : No
Format settings, GMC             : No warppoints
Format settings, Matrix          : Default (MPEG)
Muxing mode                      : Packed bitstream
Codec ID                         : XVID
Codec ID/Hint                    : XviD
Duration                         : 1h 33mn
Bit rate                         : 1 690 Kbps
Width                            : 720 pixels
Height                           : 304 pixels
Display aspect ratio             : 2.35:1
Frame rate                       : 23.976 fps
Color space                      : YUV
Chroma subsampling               : 4:2:0
Bit depth                        : 8 bits
Scan type                        : Progressive
Compression mode                 : Lossy
Bits/(Pixel*Frame)               : 0.322
Stream size                      : 1.11 GiB (81%)
Writing library                  : XviD 64

Audio
ID                               : 1
Format                           : AC-3
Format/Info                      : Audio Coding 3
Mode extension                   : CM (complete main)
Codec ID                         : 2000
Duration                         : 1h 33mn
Bit rate mode                    : Constant
Bit rate                         : 384 Kbps
Channel(s)                       : 6 channels
Channel positions                : Front: L C R, Side: L R, LFE
Sampling rate                    : 48.0 KHz
Bit depth                        : 16 bits
Compression mode                 : Lossy
Stream size                      : 258 MiB (18%)
Alignment                        : Aligned on interleaves
Interleave, duration             : 64 ms (1.53 video frames)
Interleave, preload duration     : 192 ms
Title                            : Mysteria.2011.720p.BluRay.x264-CiNEFiLE - [2] English


Screenshots:
[img]http://img97.imageshack.us/img97/253/snap1e.png[/img]
[img]http://img38.imageshack.us/img38/4370/snap2l.png[/img]
[img]http://img836.imageshack.us/img836/2872/snap3t.png[/img]
[img]http://img148.imageshack.us/img148/2408/snap4cd.png[/img]
[img]http://img835.imageshack.us/img835/293/snap5p.png[/img]


Note : did my thing and it turned out nice... 

Source: 720p CiNEFiLE thnx

Enjoy!

Respects to CaptainHomey, Cyanide, CM8, Rx, THC, ELEKTRI4KA, 
Killerhz, PA, YeFsTe, Box, MrRep and everyone in the struggle...